Coordinates
version=1
nRows=54
nColumns=12
inDegrees=yes

Units are S.I. units (second, meters, Newtons, ...)
Angles are in degrees

endheader
time	SC_y	SC_z	SC_x	AC_y	AC_z	AC_x	GH_y	GH_z	GH_yy	EL_x	PS_y
       0.0              -57.71          22.54          5.841          39.43          6.828          17.66          110.8          25.96          110.2          111.9          36.76
   0.04844              -57.71          22.55          5.848          39.43          6.827          17.66          110.8          25.96          110.2          111.8          36.77
   0.09688               -57.7          22.55          5.856          39.43          6.825          17.65          110.8          25.96          110.2          111.8          36.78
    0.1453               -57.7          22.55          5.864          39.43          6.824          17.65          110.8          25.96          110.2          111.8          36.79
    0.1938               -57.7          22.55          5.873          39.43          6.822          17.65          110.8          25.95          110.2          111.8           36.8
    0.2422              -57.69          22.55          5.883          39.42           6.82          17.64          110.8          25.95          110.2          111.8          36.81
    0.2906              -57.69          22.55          5.893          39.42          6.819          17.64          110.8          25.95          110.2          111.8          36.83
    0.3391              -57.68          22.56          5.903          39.42          6.817          17.63          110.8          25.95          110.2          111.8          36.84
    0.3875              -57.68          22.56          5.915          39.42          6.814          17.63          110.8          25.95          110.2          111.8          36.85
     0.436              -57.67          22.56          5.927          39.42          6.812          17.62          110.7          25.95          110.2          111.7          36.87
    0.4844              -57.67          22.56           5.94          39.41           6.81          17.61          110.7          25.95          110.2          111.7          36.88
    0.5328              -57.66          22.56          5.954          39.41          6.807          17.61          110.7          25.95          110.2          111.7           36.9
    0.5813              -57.65          22.57           5.97          39.41          6.804           17.6          110.7          25.95          110.2          111.7          36.92
    0.6297              -57.65          22.57          5.986          39.41          6.801          17.59          110.7          25.95          110.1          111.7          36.94
    0.6782              -57.64          22.57          6.004           39.4          6.798          17.58          110.7          25.95          110.1          111.7          36.96
    0.7266              -57.63          22.58          6.023           39.4          6.794          17.57          110.6          25.95          110.1          111.6          36.98
     0.775              -57.62          22.58          6.044           39.4           6.79          17.56          110.6          25.95          110.1          111.6          37.01
    0.8235              -57.61          22.58          6.067          39.39          6.786          17.55          110.6          25.95          110.1          111.6          37.03
    0.8719               -57.6          22.59          6.092          39.39          6.781          17.54          110.5          25.95          110.1          111.5          37.06
    0.9204              -57.59          22.59           6.12          39.38          6.776          17.52          110.5          25.94          110.1          111.5           37.1
    0.9688              -57.57           22.6           6.15          39.38           6.77          17.51          110.5          25.94          110.1          111.5          37.13
     1.017              -57.56          22.61          6.183          39.37          6.764          17.49          110.4          25.94          110.1          111.4          37.17
     1.066              -57.54          22.61           6.22          39.37          6.757          17.47          110.4          25.94          110.1          111.4          37.22
     1.114              -57.52          22.62           6.26          39.36          6.749          17.45          110.3          25.94          110.1          111.3          37.27
     1.163               -57.5          22.63          6.305          39.35          6.741          17.43          110.3          25.94          110.1          111.3          37.32
     1.211              -57.48          22.64          6.355          39.34          6.731           17.4          110.2          25.93          110.1          111.2          37.38
     1.259              -57.45          22.65          6.412          39.33           6.72          17.38          110.2          25.93          110.1          111.2          37.45
     1.308              -57.43          22.66          6.475          39.32          6.708          17.34          110.1          25.93          110.1          111.1          37.52
     1.356              -57.39          22.67          6.547          39.31          6.695          17.31          110.0          25.93          110.1          111.0          37.61
     1.405              -57.36          22.68          6.628           39.3           6.68          17.27          109.9          25.92          110.0          110.9          37.71
     1.453              -57.32           22.7          6.721          39.28          6.662          17.22          109.8          25.92          110.0          110.8          37.82
     1.502              -57.27          22.72          6.827          39.26          6.642          17.17          109.7          25.91          110.0          110.7          37.94
      1.55              -57.21          22.74           6.95          39.24          6.619          17.11          109.5          25.91          110.0          110.5          38.09
     1.599              -57.15          22.77          7.093          39.22          6.592          17.03          109.4           25.9          110.0          110.3          38.26
     1.647              -57.07           22.8          7.261          39.19           6.56          16.95          109.2          25.89          109.9          110.1          38.46
     1.695              -56.98          22.83          7.458          39.16          6.523          16.85          108.9          25.89          109.9          109.9           38.7
     1.744              -56.88          22.87          7.692          39.12          6.479          16.73          108.6          25.88          109.9          109.6          38.98
     1.792              -56.75          22.92          7.973          39.07          6.425          16.59          108.3          25.86          109.8          109.3          39.31
     1.841               -56.6          22.98          8.312          39.01          6.361          16.42          107.9          25.85          109.8          108.9          39.72
     1.889              -56.41          23.06          8.727          38.94          6.283          16.21          107.4          25.83          109.7          108.4          40.22
     1.938              -56.18          23.15          9.239          38.86          6.186          15.96          106.8          25.81          109.6          107.7          40.83
     1.986               -55.9          23.26          9.878          38.75          6.065          15.64          106.0          25.78          109.5          107.0          41.59
     2.034              -55.54           23.4          10.68          38.61          5.913          15.23          105.1          25.74          109.4          106.0          42.55
     2.083              -55.08          23.58          11.71          38.44           5.72          14.72          103.8           25.7          109.2          104.8          43.78
     2.131              -54.49          23.81          13.01          38.22          5.473          14.06          102.3          25.64          109.0          103.2          45.34
      2.18              -53.73          24.11          14.69          37.94          5.155          13.22          100.3          25.57          108.7          101.1          47.35
     2.228              -52.77          24.49          16.84          37.58           4.75          12.14          97.72          25.47          108.3          98.56          49.92
     2.277              -51.56          24.97          19.54          37.12           4.24          10.79           94.5          25.36          107.9          95.29          53.14
     2.325              -50.08          25.55          22.83          36.57          3.619          9.137          90.57          25.21          107.3          91.32          57.07
     2.374              -48.37          26.22          26.64          35.93          2.898          7.224          86.02          25.04          106.7          86.71          61.63
     2.422              -46.52          26.95          30.76          35.23          2.118          5.152           81.1          24.86          106.0          81.72          66.56
      2.47              -44.66          27.68          34.89          34.54          1.339          3.081          76.17          24.68          105.3          76.73           71.5
     2.519              -42.95          28.36           38.7          33.89         0.6184          1.168          71.62          24.52          104.7          72.13          76.05
     2.567              -41.47          28.94          41.99          33.34      -0.002911        -0.4827          67.69          24.37          104.1          68.15          79.98
